<?xml version="1.0" standalone="no"?>
<!DOCTYPE svg PUBLIC "-//W3C//DTD SVG 20010904//EN"
 "http://www.w3.org/TR/2001/REC-SVG-20010904/DTD/svg10.dtd">
<svg version="1.0" xmlns="http://www.w3.org/2000/svg"
 width="539.000000pt" height="214.000000pt" viewBox="0 0 539.000000 214.000000"
 preserveAspectRatio="xMidYMid meet">
<metadata>
Created by potrace 1.15, written by Peter Selinger 2001-2017
</metadata>
<g transform="translate(0.000000,214.000000) scale(0.100000,-0.100000)"
fill="#000000" stroke="none">
<path d="M1661 2069 c-205 -24 -352 -91 -489 -222 -259 -249 -323 -653 -160
-1013 l22 -49 14 65 c49 236 137 463 219 561 32 38 52 50 123 77 150 55 203
65 325 60 127 -6 192 -26 295 -93 163 -106 272 -283 307 -496 14 -86 15 -116
5 -194 -14 -111 -53 -225 -112 -329 -43 -76 -44 -76 -86 -76 -63 0 -158 33
-255 89 -48 27 -106 55 -130 61 -92 25 -198 -16 -244 -94 -47 -81 -29 -143 70
-240 163 -161 344 -187 572 -81 100 46 183 107 274 201 196 205 284 403 296
674 14 313 -103 614 -323 834 -205 204 -455 296 -723 265z"/>
<path d="M3383 1733 c15 -4 17 -19 17 -124 0 -88 3 -119 13 -119 9 0 11 26 9
106 l-3 107 91 -112 c50 -61 96 -111 103 -111 9 0 11 31 9 120 -4 118 -3 120
20 129 19 8 14 10 -27 9 -27 0 -40 -3 -27 -5 21 -4 22 -9 22 -104 0 -64 -4
-98 -10 -94 -5 3 -46 51 -90 106 -73 89 -84 99 -113 98 -18 -1 -24 -3 -14 -6z"/>
<path d="M3958 1729 c23 -9 23 -12 20 -124 -3 -104 -1 -115 15 -115 15 0 17
12 17 120 l0 120 34 0 c61 0 86 -50 46 -90 -11 -11 -29 -20 -41 -20 -19 0 -18
-3 11 -42 58 -81 67 -90 83 -87 12 3 6 17 -29 63 l-44 60 28 12 c31 13 42 31
42 69 0 35 -28 45 -122 44 -61 0 -77 -3 -60 -10z"/>
<path d="M4259 1717 c-60 -40 -72 -144 -23 -198 24 -26 85 -43 128 -35 112 21
155 180 63 236 -46 28 -124 27 -168 -3z m132 3 c33 -18 52 -68 47 -126 -5 -62
-26 -91 -72 -99 -71 -14 -126 42 -126 127 0 66 36 108 92 108 21 0 48 -5 59
-10z"/>
<path d="M4630 1733 c8 -3 18 -11 22 -17 11 -16 10 -194 -1 -214 -8 -15 -2
-17 64 -16 115 2 165 45 165 141 0 87 -42 113 -178 112 -48 0 -80 -3 -72 -6z
m169 -17 c49 -26 67 -106 36 -166 -20 -38 -43 -50 -99 -50 l-46 0 0 115 0 115
40 0 c23 0 53 -6 69 -14z"/>
<path d="M500 1522 c-166 -55 -308 -185 -390 -357 -52 -110 -65 -170 -64 -305
0 -138 23 -232 87 -354 58 -112 192 -249 296 -301 332 -166 713 -3 817 350 34
118 15 330 -41 434 -16 30 -16 30 -40 -79 -25 -107 -70 -220 -115 -287 -36
-55 -43 -59 -122 -88 -72 -26 -96 -30 -188 -30 -99 0 -110 2 -171 32 -135 67
-237 216 -260 379 -15 105 4 207 59 316 33 65 37 78 23 81 -9 3 0 5 19 6 57 2
149 -27 214 -66 105 -64 210 -53 251 27 29 56 14 98 -57 167 -91 87 -202 113
-318 75z"/>
<path d="M3732 1343 c-46 -23 -65 -64 -60 -130 6 -72 36 -104 106 -111 69 -6
115 17 142 72 24 51 25 77 4 121 -28 60 -121 83 -192 48z m117 -7 c35 -19 51
-55 51 -117 0 -42 -5 -55 -29 -80 -72 -71 -171 -10 -171 106 0 84 74 129 149
91z"/>
<path d="M4249 1337 c-58 -39 -74 -101 -45 -172 36 -86 184 -88 236 -2 38 62
18 152 -40 182 -44 23 -111 19 -151 -8z m142 -13 c46 -42 49 -145 4 -190 -28
-28 -88 -33 -121 -9 -68 47 -70 173 -3 212 30 17 94 10 120 -13z"/>
<path d="M4553 1345 c-78 -34 -97 -146 -35 -208 27 -27 40 -32 94 -35 90 -5
115 7 120 57 l4 41 -41 -1 c-23 -1 -30 -4 -17 -6 17 -4 22 -11 22 -38 0 -37
-12 -45 -72 -45 -32 0 -47 7 -73 33 -89 89 -29 218 94 204 30 -3 51 -12 63
-27 l18 -22 0 25 c0 19 -6 26 -31 31 -51 10 -112 6 -146 -9z"/>
<path d="M5005 1304 c-67 -151 -89 -193 -104 -197 -9 -3 7 -5 34 -5 40 -1 45
1 27 8 -21 9 -21 11 -9 42 13 31 17 33 68 36 51 3 56 1 67 -23 17 -36 15 -53
-5 -58 -10 -3 6 -5 36 -6 52 -1 53 -1 33 17 -11 9 -41 66 -67 127 -25 60 -48
111 -50 113 -2 3 -16 -22 -30 -54z"/>
<path d="M2955 923 c-16 -38 -41 -94 -57 -125 -27 -56 -28 -58 -8 -58 12 0 19
4 16 9 -3 5 -1 23 5 40 11 30 13 31 70 31 l58 0 12 -40 c10 -32 17 -40 35 -40
l23 0 -18 33 c-10 17 -36 74 -57 125 -21 50 -41 92 -45 92 -3 0 -19 -30 -34
-67z"/>
<path d="M4366 942 c-11 -26 -36 -82 -56 -124 l-36 -78 25 0 c17 0 21 3 14 8
-10 6 -10 15 -1 40 12 31 15 32 69 32 50 0 57 -3 67 -25 7 -14 12 -32 12 -40
0 -9 10 -15 26 -15 20 0 24 3 17 13 -5 6 -31 63 -58 125 -26 61 -50 112 -54
112 -3 0 -15 -21 -25 -48z"/>
<path d="M4588 979 c23 -9 23 -12 20 -124 l-3 -115 70 0 c90 0 126 20 150 84
15 40 16 53 6 87 -19 62 -55 79 -171 78 -69 0 -89 -3 -72 -10z m189 -33 c18
-21 23 -39 23 -82 0 -48 -4 -60 -29 -85 -25 -24 -37 -29 -80 -29 l-51 0 0 116
0 116 57 -4 c46 -4 61 -10 80 -32z"/>
<path d="M4978 865 c-51 -112 -54 -125 -37 -125 12 0 17 5 14 11 -4 5 -1 23 5
40 12 27 16 29 69 29 54 0 57 -1 68 -31 7 -18 10 -36 7 -40 -3 -5 8 -9 25 -9
l30 0 -23 43 c-13 23 -38 79 -57 124 -19 46 -37 83 -40 83 -3 0 -31 -56 -61
-125z"/>
</g>
</svg>
